<?xml version="1.0" standalone="no"?>
<!DOCTYPE svg PUBLIC "-//W3C//DTD SVG 1.1//EN" "http://www.w3.org/Graphics/SVG/1.1/DTD/svg11.dtd" >
<svg>
<metadata>
Created by FontForge 20120731 at Sun Jun 30 00:00:08 2019
 By www
</metadata>
<defs>
<font id="PlayerW01-CondensedBold" horiz-adv-x="545" >
  <font-face 
    font-family="PlayerW01-CondensedBold"
    font-weight="700"
    font-stretch="normal"
    units-per-em="1000"
    panose-1="2 0 8 6 0 0 0 2 0 4"
    ascent="861"
    descent="-139"
    x-height="722"
    cap-height="722"
    bbox="-32 -142 1789 968"
    underline-thickness="50"
    underline-position="-100"
    unicode-range="U+0002-2122"
  />
<missing-glyph horiz-adv-x="0" 
 />
    <glyph glyph-name=".notdef" horiz-adv-x="0" 
 />
    <glyph glyph-name="glyph1" horiz-adv-x="0" 
 />
    <glyph glyph-name="glyph2" horiz-adv-x="0" 
 />
    <glyph glyph-name="uni0002" horiz-adv-x="0" 
 />
    <glyph glyph-name="uni0009" unicode="&#x9;" horiz-adv-x="0" 
 />
    <glyph glyph-name="uni000A" unicode="&#xa;" horiz-adv-x="0" 
 />
    <glyph glyph-name="space" unicode=" " horiz-adv-x="250" 
 />
    <glyph glyph-name="exclam" unicode="!" horiz-adv-x="244" 
d="M55 190v532h134v-532h-134zM55 0v120h134v-120h-134z" />
    <glyph glyph-name="quotedbl" unicode="&#x22;" horiz-adv-x="348" 
d="M219 520l-25 202h134l-24 -202h-85zM45 520l-25 202h134l-24 -202h-85z" />
    <glyph glyph-name="numbersign" unicode="#" horiz-adv-x="1003" 
d="M363 -3l-154 505v-382h45v-120h-224v120h45v482h-45v120h247l126 -452v332h-45v120h224v-120h-45v-605h-174zM699 140h189v-110h-189v110zM733 482v-162h106v162h-106zM669 210l-60 75v234l60 73h234l60 -72v-236l-60 -74h-234z" />
    <glyph glyph-name="dollar" unicode="$" horiz-adv-x="465" 
d="M164 457l39 -7v152h-39v-145zM262 306v-186h39v180zM203 -57v57h-113l-60 72v141h134v-93h39v197l-117 21l-56 69v242l60 73h113v43h59v-43h113l60 -72v-137h-134v89h-39v-163l132 -23l41 -65v-278l-60 -73h-113v-57h-59z" />
    <glyph glyph-name="percent" unicode="%" horiz-adv-x="976" 
d="M706 312v-202h106v202h-106zM642 0l-60 75v274l60 73h234l60 -72v-276l-60 -74h-234zM164 612v-202h106v202h-106zM100 300l-60 75v274l60 73h234l60 -72v-276l-60 -74h-234zM582 722h102l-288 -722h-102z" />
    <glyph glyph-name="ampersand" unicode="&#x26;" horiz-adv-x="491" 
d="M260 193l-74 128l-22 -20v-182h58zM194 549l138 -237l47 81h92v-120h-28l-42 -77l45 -77h35v-119h-104l-44 74l-41 -74h-217l-45 76v259l94 89l-69 119v121l57 58h271l41 -58v-136h-129v74h-101v-53z" />
    <glyph glyph-name="quotesingle" unicode="'" horiz-adv-x="174" 
d="M45 520l-25 202h134l-24 -202h-85z" />
    <glyph glyph-name="parenleft" unicode="(" horiz-adv-x="252" 
d="M186 -66q-72 130 -109 239t-37 201q0 93 36 192t106 214l80 -46q-68 -97 -98.5 -180.5t-30.5 -167.5q0 -89 31 -184t93 -212z" />
    <glyph glyph-name="parenright" unicode=")" horiz-adv-x="252" 
d="M-5 -10q61 117 92.5 212t31.5 184q0 84 -30.5 167.5t-98.5 180.5l79 46q71 -115 107 -214t36 -192q0 -92 -37 -201t-110 -239z" />
    <glyph glyph-name="asterisk" unicode="*" horiz-adv-x="265" 
d="M13 625l69 43l-69 43l26 44l69 -42v80h51v-80l68 42l26 -44l-70 -43l70 -43l-26 -44l-68 42v-80h-51v80l-69 -42z" />
    <glyph glyph-name="plus" unicode="+" horiz-adv-x="412" 
d="M25 423h114v122h134v-122h114v-119h-114v-115h-134v115h-114v119z" />
    <glyph glyph-name="comma" unicode="," horiz-adv-x="174" 
d="M86 -96h-4v96h-62v120h134v-120z" />
    <glyph glyph-name="hyphen" unicode="-" horiz-adv-x="309" 
d="M20 418h269v-120h-269v120z" />
    <glyph glyph-name="hyphen" unicode="&#xad;" horiz-adv-x="309" 
d="M20 418h269v-120h-269v120z" />
    <glyph glyph-name="period" unicode="." horiz-adv-x="174" 
d="M20 0v120h134v-120h-134z" />
    <glyph glyph-name="slash" unicode="/" horiz-adv-x="365" 
d="M256 722h102l-288 -722h-102z" />
    <glyph glyph-name="zero" unicode="0" horiz-adv-x="494" 
d="M189 602v-482h124v482h-124zM439 74l-60 -74h-264l-60 75v574l60 73h264l60 -72v-576z" />
    <glyph glyph-name="one" unicode="1" horiz-adv-x="284" 
d="M254 120v-120h-224v120h45v482h-45v80l87 40h92v-602h45z" />
    <glyph glyph-name="two" unicode="2" horiz-adv-x="471" 
d="M169 602v-75h-134v123l60 72h281l60 -73v-281l-62 -65h-205v-183h130v80h134v-200h-398v365l54 58h213v179h-133z" />
    <glyph glyph-name="three" unicode="3" horiz-adv-x="486" 
d="M169 602v-78h-129v125l60 73h276l60 -72v-208l-47 -44l47 -42v-282l-60 -74h-276l-60 75v155h129v-110h133v208h-108v120h108v154h-133z" />
    <glyph glyph-name="four" unicode="4" horiz-adv-x="499" 
d="M297 355v230l-158 -230h158zM431 724v-369h53v-120h-53v-115h45v-120h-224v120h45v115h-282v154l233 335h183z" />
    <glyph glyph-name="five" unicode="5" horiz-adv-x="471" 
d="M302 120v183h-213l-54 58v361h398v-120h-264v-179h205l62 -65v-285l-60 -73h-281l-60 72v128h134v-80h133z" />
    <glyph glyph-name="six" unicode="6" horiz-adv-x="496" 
d="M322 120v183h-133v-183h133zM115 722h281l60 -75v-120h-134v75h-133v-179h205l62 -65v-285l-60 -73h-281l-60 72v576z" />
    <glyph glyph-name="seven" unicode="7" horiz-adv-x="502" 
d="M284 120h43v-120h-224v120h45l205 482h-204v-94h-119v214h457v-114z" />
    <glyph glyph-name="eight" unicode="8" horiz-adv-x="501" 
d="M184 602v-149h133v149h-133zM184 333v-213h133v213h-133zM110 0l-60 75v275l47 43l-47 45v211l60 73h281l60 -72v-213l-47 -44l47 -42v-277l-60 -74h-281z" />
    <glyph glyph-name="nine" unicode="9" horiz-adv-x="496" 
d="M174 602v-179h133v179h-133zM381 0h-281l-60 75v125h134v-80h133v183h-205l-62 65v281l60 73h281l60 -72v-576z" />
    <glyph glyph-name="colon" unicode=":" horiz-adv-x="174" 
d="M20 286v120h134v-120h-134zM20 0v120h134v-120h-134z" />
    <glyph glyph-name="semicolon" unicode=";" horiz-adv-x="174" 
d="M86 -96h-4v96h-62v120h134v-120zM20 286v120h134v-120h-134z" />
    <glyph glyph-name="less" unicode="&#x3c;" horiz-adv-x="490" 
d="M20 448l450 212v-133l-341 -167l341 -169v-134l-450 214v177z" />
    <glyph glyph-name="equal" unicode="=" horiz-adv-x="447" 
d="M22 444h402v-159h-402v159z" />
    <glyph glyph-name="greater" unicode="&#x3e;" horiz-adv-x="490" 
d="M470 271l-450 -214v134l341 169l-341 167v133l450 -212v-177z" />
    <glyph glyph-name="question" unicode="?" horiz-adv-x="484" 
d="M125 0v120h134v-120h-134zM159 602v-89h-134v137l60 72h309l60 -73v-252l-56 -69l-139 -37v-101h-134v152l41 65l154 40v155h-161z" />
    <glyph glyph-name="at" unicode="@" horiz-adv-x="883" 
d="M375 100h133v136h-133v-136zM642 100h77v522h-555v-722h-114v749l60 73h663l60 -72v-578l-60 -72h-472l-60 73v188l62 65h205v109h-133v-45h-134v80l60 75h281l60 -74v-371z" />
    <glyph glyph-name="A" unicode="A" 
d="M234 331h76l-37 214zM337 211h-130l-18 -91h45v-120h-224v120h45l104 482h-34v120h298v-120h-35l102 -482h45v-120h-224v120h45z" />
    <glyph glyph-name="B" unicode="B" horiz-adv-x="492" 
d="M209 602v-177h104v177h-104zM313 120v185h-104v-185h104zM30 0v120h45v482h-45v120h357l60 -72v-211l-47 -74l47 -72v-219l-60 -74h-357z" />
    <glyph glyph-name="C" unicode="C" horiz-adv-x="460" 
d="M184 602v-482h122v106h119v-152l-60 -74h-255l-60 75v574l60 73h255l60 -72v-155h-119v107h-122z" />
    <glyph glyph-name="D" unicode="D" horiz-adv-x="487" 
d="M209 602v-482h94v482h-94zM30 722h347l60 -72v-576l-60 -74h-347v120h45v482h-45v120z" />
    <glyph glyph-name="E" unicode="E" horiz-adv-x="469" 
d="M424 207v-207h-394v120h45v482h-45v120h394v-207h-119v87h-96v-176h56v25h120v-170h-120v25h-56v-186h96v87h119z" />
    <glyph glyph-name="F" unicode="F" horiz-adv-x="449" 
d="M209 120h44v-120h-223v120h45v482h-45v120h394v-207h-119v87h-96v-176h56v25h120v-170h-120v25h-56v-186z" />
    <glyph glyph-name="G" unicode="G" horiz-adv-x="476" 
d="M441 74l-60 -74h-271l-60 75v574l60 73h271l60 -72v-134h-119v86h-138v-482h133v179h-60v120h184v-345z" />
    <glyph glyph-name="H" unicode="H" horiz-adv-x="572" 
d="M542 120v-120h-224v120h45v186h-154v-186h45v-120h-224v120h45v482h-45v120h224v-120h-45v-176h154v176h-45v120h224v-120h-45v-482h45z" />
    <glyph glyph-name="I" unicode="I" horiz-adv-x="284" 
d="M254 120v-120h-224v120h45v482h-45v120h224v-120h-45v-482h45z" />
    <glyph glyph-name="J" unicode="J" horiz-adv-x="457" 
d="M382 74l-60 -74h-237l-60 75v149h134v-104h89v482h-45v120h224v-120h-45v-528z" />
    <glyph glyph-name="K" unicode="K" horiz-adv-x="518" 
d="M254 120v-120h-224v120h45v482h-45v120h224v-120h-45v-185l120 185h-34v120h196v-120h-36l-84 -134l92 -348h45v-120h-160l-80 326l-59 -88v-118h45z" />
    <glyph glyph-name="L" unicode="L" horiz-adv-x="441" 
d="M209 120h88v107h119v-227h-386v120h45v482h-45v120h224v-120h-45v-482z" />
    <glyph glyph-name="M" unicode="M" horiz-adv-x="687" 
d="M329 115l-120 417v-412h45v-120h-224v120h45v482h-45v120h257l56 -281l57 281h257v-120h-45v-482h45v-120h-224v120h45v412l-120 -417h-29z" />
    <glyph glyph-name="N" unicode="N" horiz-adv-x="607" 
d="M363 -3l-154 505v-382h45v-120h-224v120h45v482h-45v120h247l126 -452v332h-45v120h224v-120h-45v-605h-174z" />
    <glyph glyph-name="O" unicode="O" horiz-adv-x="484" 
d="M184 602v-482h124v482h-124zM434 74l-60 -74h-264l-60 75v574l60 73h264l60 -72v-576z" />
    <glyph glyph-name="P" unicode="P" horiz-adv-x="468" 
d="M209 602v-216h85v216h-85zM254 120v-120h-224v120h45v482h-45v120h338l60 -72v-310l-60 -74h-159v-146h45z" />
    <glyph glyph-name="Q" unicode="Q" horiz-adv-x="494" 
d="M184 602v-482h126v482h-126zM187 -80v80h-77l-60 75v574l60 73h274l60 -72v-576l-60 -74h-77v-80h-120z" />
    <glyph glyph-name="R" unicode="R" horiz-adv-x="534" 
d="M209 602v-216h85v216h-85zM254 120v-120h-224v120h45v482h-45v120h338l60 -72v-290l-57 -70l108 -170h45v-120h-229v120h45l-93 146h-38v-146h45z" />
    <glyph glyph-name="S" unicode="S" horiz-adv-x="449" 
d="M164 602v-145l214 -41l41 -65v-278l-60 -73h-269l-60 72v141h134v-93h121v180l-199 38l-56 69v242l60 73h269l60 -72v-137h-134v89h-121z" />
    <glyph glyph-name="T" unicode="T" horiz-adv-x="562" 
d="M394 120v-120h-224v120h45v482h-71v-107h-119v227h512v-227h-119v107h-69v-482h45z" />
    <glyph glyph-name="U" unicode="U" horiz-adv-x="572" 
d="M497 74l-60 -74h-302l-60 75v527h-45v120h224v-120h-45v-482h154v482h-45v120h224v-120h-45v-528z" />
    <glyph glyph-name="V" unicode="V" 
d="M271 156l85 446h-45v120h224v-120h-45l-120 -605h-197l-118 605h-45v120h224v-120h-45z" />
    <glyph glyph-name="W" unicode="W" horiz-adv-x="867" 
d="M593 156l85 446h-45v120h224v-120h-45l-120 -605h-187l-72 368l-73 -368h-187l-118 605h-45v120h224v-120h-45l82 -446l86 446h-45v120h244v-120h-45z" />
    <glyph glyph-name="X" unicode="X" horiz-adv-x="526" 
d="M263 248l-69 -128h47v-120h-226v120h45l136 241l-136 241h-45v120h226v-120h-47l69 -128l69 128h-48v120h227v-120h-45l-136 -241l136 -241h45v-120h-227v120h48z" />
    <glyph glyph-name="Y" unicode="Y" horiz-adv-x="534" 
d="M379 120v-120h-224v120h45v198l-145 284h-45v120h224v-120h-45l78 -149l78 149h-45v120h224v-120h-45l-145 -287v-195h45z" />
    <glyph glyph-name="Z" unicode="Z" horiz-adv-x="470" 
d="M444 226v-226h-424v150l281 452h-146v-113h-119v233h409v-150l-281 -452h161v106h119z" />
    <glyph glyph-name="bracketleft" unicode="[" horiz-adv-x="215" 
d="M90 842h150v-100h-76v-762h76v-100h-150l-40 55v854z" />
    <glyph glyph-name="backslash" unicode="\" horiz-adv-x="310" 
d="M308 0h-98l-208 722h98z" />
    <glyph glyph-name="bracketright" unicode="]" horiz-adv-x="215" 
d="M165 789v-854l-40 -55h-150v100h76v762h-76v100h150z" />
    <glyph glyph-name="asciicircum" unicode="^" 
d="M234 331h76l-37 215zM337 211h-130l-18 -91h45v-120h-224v120h45l132 603h172l131 -603h45v-120h-224v120h45z" />
    <glyph glyph-name="underscore" unicode="_" horiz-adv-x="389" 
d="M0 61h389v-120h-389v120z" />
    <glyph glyph-name="grave" unicode="`" horiz-adv-x="341" 
d="M221 757h-77l-64 124h103z" />
    <glyph glyph-name="a" unicode="a" 
d="M234 331h76l-37 214zM337 211h-130l-18 -91h45v-120h-224v120h45l104 482h-34v120h298v-120h-35l102 -482h45v-120h-224v120h45z" />
    <glyph glyph-name="b" unicode="b" horiz-adv-x="492" 
d="M209 602v-177h104v177h-104zM313 120v185h-104v-185h104zM30 0v120h45v482h-45v120h357l60 -72v-211l-47 -74l47 -72v-219l-60 -74h-357z" />
    <glyph glyph-name="c" unicode="c" horiz-adv-x="460" 
d="M184 602v-482h122v106h119v-152l-60 -74h-255l-60 75v574l60 73h255l60 -72v-155h-119v107h-122z" />
    <glyph glyph-name="d" unicode="d" horiz-adv-x="487" 
d="M209 602v-482h94v482h-94zM30 722h347l60 -72v-576l-60 -74h-347v120h45v482h-45v120z" />
    <glyph glyph-name="e" unicode="e" horiz-adv-x="469" 
d="M424 207v-207h-394v120h45v482h-45v120h394v-207h-119v87h-96v-176h56v25h120v-170h-120v25h-56v-186h96v87h119z" />
    <glyph glyph-name="f" unicode="f" horiz-adv-x="449" 
d="M209 120h44v-120h-223v120h45v482h-45v120h394v-207h-119v87h-96v-176h56v25h120v-170h-120v25h-56v-186z" />
    <glyph glyph-name="g" unicode="g" horiz-adv-x="476" 
d="M441 74l-60 -74h-271l-60 75v574l60 73h271l60 -72v-134h-119v86h-138v-482h133v179h-60v120h184v-345z" />
    <glyph glyph-name="h" unicode="h" horiz-adv-x="572" 
d="M542 120v-120h-224v120h45v186h-154v-186h45v-120h-224v120h45v482h-45v120h224v-120h-45v-176h154v176h-45v120h224v-120h-45v-482h45z" />
    <glyph glyph-name="i" unicode="i" horiz-adv-x="284" 
d="M254 120v-120h-224v120h45v482h-45v120h224v-120h-45v-482h45z" />
    <glyph glyph-name="j" unicode="j" horiz-adv-x="457" 
d="M382 74l-60 -74h-237l-60 75v149h134v-104h89v482h-45v120h224v-120h-45v-528z" />
    <glyph glyph-name="k" unicode="k" horiz-adv-x="518" 
d="M254 120v-120h-224v120h45v482h-45v120h224v-120h-45v-185l120 185h-34v120h196v-120h-36l-84 -134l92 -348h45v-120h-160l-80 326l-59 -88v-118h45z" />
    <glyph glyph-name="l" unicode="l" horiz-adv-x="441" 
d="M209 120h88v107h119v-227h-386v120h45v482h-45v120h224v-120h-45v-482z" />
    <glyph glyph-name="m" unicode="m" horiz-adv-x="687" 
d="M329 115l-120 417v-412h45v-120h-224v120h45v482h-45v120h257l56 -281l57 281h257v-120h-45v-482h45v-120h-224v120h45v412l-120 -417h-29z" />
    <glyph glyph-name="n" unicode="n" horiz-adv-x="607" 
d="M363 -3l-154 505v-382h45v-120h-224v120h45v482h-45v120h247l126 -452v332h-45v120h224v-120h-45v-605h-174z" />
    <glyph glyph-name="o" unicode="o" horiz-adv-x="484" 
d="M184 602v-482h124v482h-124zM434 74l-60 -74h-264l-60 75v574l60 73h264l60 -72v-576z" />
    <glyph glyph-name="p" unicode="p" horiz-adv-x="468" 
d="M209 602v-216h85v216h-85zM254 120v-120h-224v120h45v482h-45v120h338l60 -72v-310l-60 -74h-159v-146h45z" />
    <glyph glyph-name="q" unicode="q" horiz-adv-x="494" 
d="M184 602v-482h126v482h-126zM187 -80v80h-77l-60 75v574l60 73h274l60 -72v-576l-60 -74h-77v-80h-120z" />
    <glyph glyph-name="r" unicode="r" horiz-adv-x="534" 
d="M209 602v-216h85v216h-85zM254 120v-120h-224v120h45v482h-45v120h338l60 -72v-290l-57 -70l108 -170h45v-120h-229v120h45l-93 146h-38v-146h45z" />
    <glyph glyph-name="s" unicode="s" horiz-adv-x="449" 
d="M164 602v-145l214 -41l41 -65v-278l-60 -73h-269l-60 72v141h134v-93h121v180l-199 38l-56 69v242l60 73h269l60 -72v-137h-134v89h-121z" />
    <glyph glyph-name="t" unicode="t" horiz-adv-x="562" 
d="M394 120v-120h-224v120h45v482h-71v-107h-119v227h512v-227h-119v107h-69v-482h45z" />
    <glyph glyph-name="u" unicode="u" horiz-adv-x="572" 
d="M497 74l-60 -74h-302l-60 75v527h-45v120h224v-120h-45v-482h154v482h-45v120h224v-120h-45v-528z" />
    <glyph glyph-name="v" unicode="v" 
d="M271 156l85 446h-45v120h224v-120h-45l-120 -605h-197l-118 605h-45v120h224v-120h-45z" />
    <glyph glyph-name="w" unicode="w" horiz-adv-x="867" 
d="M593 156l85 446h-45v120h224v-120h-45l-120 -605h-187l-72 368l-73 -368h-187l-118 605h-45v120h224v-120h-45l82 -446l86 446h-45v120h244v-120h-45z" />
    <glyph glyph-name="x" unicode="x" horiz-adv-x="526" 
d="M263 248l-69 -128h47v-120h-226v120h45l136 241l-136 241h-45v120h226v-120h-47l69 -128l69 128h-48v120h227v-120h-45l-136 -241l136 -241h45v-120h-227v120h48z" />
    <glyph glyph-name="y" unicode="y" horiz-adv-x="534" 
d="M379 120v-120h-224v120h45v198l-145 284h-45v120h224v-120h-45l78 -149l78 149h-45v120h224v-120h-45l-145 -287v-195h45z" />
    <glyph glyph-name="z" unicode="z" horiz-adv-x="470" 
d="M444 226v-226h-424v150l281 452h-146v-113h-119v233h409v-150l-281 -452h161v106h119z" />
    <glyph glyph-name="braceleft" unicode="{" horiz-adv-x="469" 
d="M424 207v-207h-394v120h45v482h-45v120h394v-207h-119v87h-96v-176h156v-120h-156v-186h96v87h119z" />
    <glyph glyph-name="bar" unicode="|" horiz-adv-x="254" 
d="M60 -100v822h134v-822h-134z" />
    <glyph glyph-name="braceright" unicode="}" horiz-adv-x="449" 
d="M305 515v87h-96v-176h156v-120h-156v-186h45v-120h-224v120h45v482h-45v120h394v-207h-119z" />
    <glyph glyph-name="asciitilde" unicode="~" horiz-adv-x="461" 
d="M164 602v-179h205l62 -65v-285l-60 -73h-281l-60 72v142h134v-94h133v183h-205l-62 65v281l60 73h281l60 -72v-137h-134v89h-133z" />
    <glyph glyph-name="uni00A0" unicode="&#xa0;" horiz-adv-x="181" 
 />
    <glyph glyph-name="exclamdown" unicode="&#xa1;" horiz-adv-x="244" 
d="M189 527v-346h-134v346h134z" />
    <glyph glyph-name="cent" unicode="&#xa2;" horiz-adv-x="460" 
d="M184 502v-282h122v86h119v-132l-60 -74h-71v-100h-104v100h-80l-60 75v374l60 73h80v100h104v-100h71l60 -72v-135h-119v87h-122z" />
    <glyph glyph-name="sterling" unicode="&#xa3;" horiz-adv-x="475" 
d="M30 418h53l-53 203l48 101h275l60 -72v-115h-119v67h-133l55 -184h143v-120h-143l-51 -178h155v66h119v-186h-408v140l50 158h-51v120z" />
    <glyph glyph-name="currency" unicode="&#xa4;" horiz-adv-x="460" 
d="M10 456h40v193l60 73h255l60 -72v-135h-119v87h-122v-146h235v-65h-235v-60h235v-65h-235v-146h122v86h119v-132l-60 -74h-255l-60 75v191h-40v65h40v60h-40v65z" />
    <glyph glyph-name="yen" unicode="&#xa5;" horiz-adv-x="534" 
d="M20 355h161l-126 247h-45v120h224v-120h-45l78 -159l78 159h-45v120h224v-120h-45l-125 -247h159v-65h-179v-44h179v-65h-179v-61h45v-120h-224v120h45v61h-180v65h180v44h-180v65z" />
    <glyph glyph-name="brokenbar" unicode="&#xa6;" horiz-adv-x="254" 
d="M60 -100v300h134v-300h-134zM194 400h-134v322h134v-322z" />
    <glyph glyph-name="section" unicode="&#xa7;" horiz-adv-x="532" 
d="M189 425h154v177h-154v-177zM477 120h45v-120h-224v120h45v185h-154v-185h45v-120h-224v120h45v527l60 75h302l60 -74v-528z" />
    <glyph glyph-name="dieresis" unicode="&#xa8;" horiz-adv-x="318" 
d="M189 765v88h94v-88h-94zM35 765v88h94v-88h-94z" />
    <glyph glyph-name="copyright" unicode="&#xa9;" horiz-adv-x="794" 
d="M349 462v-202h112v46h99v-72l-60 -74h-205l-60 75v254l60 73h205l60 -72v-75h-99v47h-112zM164 622v-522h466v522h-466zM110 0l-60 75v574l60 73h574l60 -72v-576l-60 -74h-574z" />
    <glyph glyph-name="ordfeminine" unicode="&#xaa;" horiz-adv-x="1794" 
d="M815 -25q0 -20 -9 -35t-21 -25h-9q14 11 23 24.5t9 31.5q0 14 -6 30.5t-31 22.5q2 -12 4 -27.5t2 -39.5q0 -26 -12.5 -45t-31.5 -31t-42.5 -17.5t-45.5 -5.5q-15 0 -30 4.5t-27.5 13.5t-20 21.5t-7.5 28.5q0 17 7 27.5t16.5 16.5t19.5 8t16 2q11 0 16 -1q8 15 22 28.5
t35 22.5v3q-2 8 -2.5 16t-0.5 14q-11 -22 -28 -37t-42 -15t-41 26t-16 64q0 19 7 40.5t15.5 43.5t15.5 41.5t7 33.5q0 17 -3 23t-8 6q-8 0 -15 -5t-13 -11.5t-9.5 -12.5t-4.5 -9q0 -25 -12.5 -41.5t-31.5 -25.5q0 -92 -37 -136t-109 -44q-19 0 -37.5 4t-32.5 14t-23 25.5
t-9 38.5q0 26 15 48t40 22q17 0 24.5 -12t7.5 -25q0 -25 -13.5 -46.5t-38.5 -21.5q-5 0 -10.5 2t-10.5 4q4 -15 17 -25.5t26 -10.5q21 0 36.5 15t27 38.5t19.5 52.5t14 57q-31 13 -45 40q-12 -5 -18 -5q-71 0 -71 75q0 27 10.5 53.5t29 47.5t44 33.5t54.5 12.5q30 0 49 -5
t32.5 -11t23.5 -11t22 -5q5 0 10 0.5t10 1.5v-5q-34 -8 -65.5 -30t-51.5 -50q-3 24 -20 38.5t-43 14.5q-19 0 -36 -8.5t-30 -22.5t-21 -32t-8 -37q0 -53 58 -53q10 0 18 4q-7 14 -7 35q0 28 14.5 44.5t26.5 16.5q11 0 16.5 -7.5t5.5 -17.5q0 -21 -14.5 -41.5t-31.5 -31.5
q6 -13 16.5 -21.5t23.5 -13.5q8 34 20.5 68t38.5 65q4 5 14 14.5t22 19t25.5 17t26.5 9.5v-7q-18 -9 -29.5 -24.5t-18 -34t-9 -39.5t-2.5 -40q0 -22 3 -47q17 8 28.5 23t11.5 35q0 14 -4 27t-11 20v2q8 -5 12.5 -16t6.5 -22q6 12 21.5 26.5t40.5 14.5q15 0 26.5 -8t19 -21
t11 -30.5t3.5 -35.5q0 -12 -7 -31.5t-15.5 -41t-15.5 -44t-7 -40.5q0 -21 12 -21q13 0 23.5 14t19.5 37t16 52.5t13 59.5t11.5 58t10.5 49q8 -4 16 -7t17 -3q14 0 23.5 7t19.5 13q-5 -26 -13 -60t-15.5 -69.5t-12.5 -69t-3 -57.5l1 -17q20 -5 33 -21t13 -42zM1714 138
l40 -32l-143 -27l9 -51l-88 71q-15 -35 -35.5 -66.5t-46.5 -57.5q25 -9 53 -9q38 0 59 13.5t33 38.5h4q-3 -15 -12.5 -27t-22 -20.5t-27.5 -12.5t-29 -4q-36 0 -67 12q-34 -34 -71.5 -54.5t-71.5 -20.5q-32 0 -53 27.5t-21 93.5q-2 -1 -7 -1q-18 0 -35.5 8.5t-31 25.5
t-22 43t-8.5 61q0 20 14 46.5t36.5 50.5t51.5 41t59 17q20 0 35 -15.5t15 -51.5q0 -23 -12.5 -42.5t-31 -34t-41 -23.5t-43.5 -11q-6 -34 -9 -58t-3 -25q0 -11 7.5 -16.5t18.5 -5.5q4 0 7 1v1q0 17 6 38t17.5 40t27 31.5t34.5 12.5q9 0 13 -8t4 -17q0 -16 -8.5 -34
t-22 -33.5t-30 -26.5t-33.5 -13q0 -59 20.5 -84.5t51.5 -25.5q28 0 61 18.5t64 49.5q-35 17 -57.5 47.5t-22.5 74.5q0 15 4.5 30t13 28t21 23t28.5 13v-4q-31 -9 -45.5 -36.5t-14.5 -57.5q0 -37 23 -65.5t58 -43.5q24 26 44.5 59t31.5 70l-114 35l50 20l-67 136l54 -16
l-12 80l52 -59l31 45l31 -98l42 135l21 -35l79 46v-89h49l-104 -103l103 29l-17 -53l78 -8zM1096 42q0 -20 -6.5 -40.5t-18.5 -37.5t-29.5 -28t-39.5 -11q-17 0 -28.5 9t-11.5 26q0 11 8.5 19.5t19.5 8.5q6 0 9 -1v-4q-9 0 -19 -6t-10 -17q0 -13 9 -20t20 -7q19 0 35.5 11.5
t28.5 28.5t18.5 36.5t6.5 36.5q0 13 -4 24t-10 21q-14 -31 -36 -55.5t-52 -24.5q-23 0 -31 16.5t-8 36.5q0 19 6 33t15 23.5t18.5 14.5t16.5 7q3 18 5.5 39t4.5 40.5t3.5 35t1.5 24.5q0 2 -3 6t-9 4q-5 0 -12 -4.5t-14 -14t-12 -24.5t-5 -36q0 -10 -4.5 -38.5t-11 -65
t-14.5 -76.5t-15 -74.5t-12.5 -58t-6.5 -27.5q-8 4 -15.5 7t-17.5 3q-14 0 -23.5 -7t-18.5 -13q2 12 8 44.5t14.5 75t17 90.5t16 89.5t12.5 72.5t5 40q0 22 -7.5 34.5t-18.5 22t-24 19.5t-24 27.5t-18.5 46t-7.5 74.5q0 27 7 54.5t16 56t16 57t7 55.5q0 22 -9 22
q-11 0 -29 -21t-32 -56q-2 -14 -7.5 -46t-11.5 -65.5t-12 -61t-7 -32.5q-8 4 -15.5 7.5t-17.5 3.5q-14 0 -22 -3t-17 -9q3 18 10 56.5t14 80t12.5 77.5t5.5 50q0 7 -2 12t-7 5q-12 0 -20.5 -16.5t-16.5 -36.5h-10q4 12 8.5 23.5t12 21t18 15.5t25.5 6q28 0 41.5 -17
t17.5 -40q6 8 13 18t15 19t18 15t23 6q16 0 27.5 -10t19.5 -26.5t12 -37t4 -41.5q0 -36 -8 -67t-17 -59t-17 -55t-8 -55q0 -27 7 -42t17.5 -23.5t23 -14t24 -13t20.5 -20t13 -36.5q18 31 31 40t28 9q19 0 33 -14t23.5 -34.5t14 -42t4.5 -36.5q0 -17 -4 -37t-12 -40
q8 -12 13.5 -26.5t5.5 -31.5zM354 591q0 -32 -16.5 -61t-44.5 -49q16 -16 16 -43q0 -26 -16 -43t-39 -27q1 -2 1 -5q0 -20 -17 -32.5t-34 -12.5h-5l3 5q5 0 12.5 2.5t14 7t11.5 11t5 15.5q0 4 -1 6q-12 -5 -24.5 -6.5t-24.5 -1.5q-9 0 -24 2t-28.5 7t-23.5 13t-10 21
q0 9 5.5 14.5t14 9t17.5 5t15 1.5q10 0 23.5 -3.5t26 -10t23 -15.5t16.5 -19q19 8 32.5 22.5t13.5 35.5q0 22 -11 36q-16 -10 -33.5 -15.5t-37.5 -5.5q-29 0 -54 10.5t-43.5 31t-29 49.5t-10.5 65q0 20 13 54q-17 12 -25 31t-8 42q0 22 7.5 45.5t21 42t32.5 30.5t41 12
q6 0 16 -2v-6q-4 1 -12 1q-21 0 -38.5 -11t-31 -28.5t-21 -39t-7.5 -42.5q0 -20 7 -36.5t23 -27.5q16 36 42 76.5t55.5 74.5t59 56.5t52.5 22.5q13 0 21 -6.5t12 -17t5.5 -22.5t1.5 -22q0 -28 -13 -55.5t-34.5 -50.5t-48 -41.5t-53.5 -28.5l-1 -2v-2q-5 -17 -9.5 -37
t-9 -39.5t-7 -37.5t-2.5 -33q0 -16 6.5 -25.5t15 -14t15.5 -6t9 -1.5q33 0 63 22q-10 7 -21.5 9.5t-22.5 2.5q-9 0 -21 -2.5t-14 -4.5v4q5 5 16 8t17 3q30 0 52 -14q24 20 38.5 51t14.5 63q0 19 -6.5 38t-28.5 19q-18 0 -32.5 -9t-24.5 -22.5t-15.5 -30.5t-5.5 -33
q0 -9 4.5 -23t18.5 -14q10 0 17.5 7t12.5 17t7.5 21t2.5 20q0 3 -1 7t-2 9h8q2 -5 2 -10v-6q0 -11 -3.5 -23.5t-10 -23.5t-15 -18.5t-18.5 -7.5q-19 0 -24.5 16.5t-5.5 31.5q0 16 6 33.5t16.5 32.5t25.5 24.5t34 9.5q27 0 42.5 -24t15.5 -56zM1491 572l-7 -25
q-5 -17 -14.5 -35.5t-23 -33t-32.5 -14.5q-20 0 -38.5 14.5t-25.5 46.5q-11 -20 -19.5 -32.5t-16 -19.5t-14.5 -9t-15 -2q-19 0 -32.5 13.5t-22.5 33.5t-13 42t-4 39q0 22 14 50.5t34 54t43.5 43t42.5 17.5t30 -24q5 25 10 49t9 43t6.5 31t3.5 15q8 -4 16 -7t17 -3
q14 0 23.5 7t19.5 13q-2 -12 -8 -42.5t-13.5 -70t-16 -84t-15.5 -83t-11.5 -67.5t-4.5 -38q0 -7 2 -12t7 -5q9 0 18.5 10.5t17 25.5t13.5 31.5t9 27.5h11zM1200 530q-3 -12 -7.5 -23.5t-11 -21.5t-16.5 -16t-23 -6q-20 0 -37 14.5t-23 46.5q-21 -40 -35 -51t-30 -11
q-19 0 -32.5 13.5t-22.5 33.5t-13 42t-4 39q0 22 14 50.5t34 54t43.5 43t42.5 17.5q22 0 32 -29l7 26q8 -4 15.5 -7t17.5 -3q14 0 23.5 7t18.5 13q-3 -18 -11 -57t-16 -81.5t-14.5 -79.5t-6.5 -50q0 -17 8 -17q12 0 20.5 16.5t16.5 36.5h10zM1764 530q-3 -12 -7.5 -23.5
t-11 -21.5t-16.5 -16t-23 -6q-20 0 -37 14.5t-23 46.5q-21 -40 -35 -51t-30 -11q-19 0 -32.5 13.5t-22.5 33.5t-13 42t-4 39q0 22 14 50.5t34 54t43.5 43t42.5 17.5q22 0 32 -29l7 26q8 -4 15.5 -7t17.5 -3q14 0 23.5 7t18.5 13q-3 -18 -11 -57t-16 -81.5t-14.5 -79.5
t-6.5 -50q0 -17 8 -17q12 0 20.5 16.5t16.5 36.5h10zM630 530q-3 -12 -7 -23.5t-11 -21.5t-17 -16t-23 -6q-20 0 -37 14.5t-23 46.5q-20 -40 -34.5 -51t-30.5 -11q-19 0 -32.5 13.5t-22 33.5t-12.5 42t-4 39q0 22 14 50.5t34 54t43.5 43t42.5 17.5q21 0 31 -29l7 26
q8 -4 16 -7t17 -3q14 0 23.5 7t19.5 13q-3 -18 -11 -57t-16.5 -81.5t-15 -79.5t-6.5 -50q0 -17 9 -17q12 0 20.5 16.5t16.5 36.5h9zM512 -4q0 -38 -25.5 -63.5t-60.5 -31.5q-10 -18 -31.5 -26.5t-40.5 -8.5q-14 0 -31 3.5t-31.5 11t-24.5 19t-10 28.5q0 14 8.5 25t24.5 11h6
q4 0 9 -2q-43 38 -84 55t-98 17q-23 0 -48 -2.5t-60 -7.5q31 11 52.5 17t40.5 13q22 8 43 22.5t37 32.5t25.5 37.5t9.5 37.5q0 45 -29 67.5t-71 22.5q-13 0 -29 -1.5t-29.5 -7t-22.5 -15.5t-9 -27t17.5 -26t36.5 -9t35 11t31 24v-9q-10 -14 -28 -27t-38 -13q-25 0 -44.5 13
t-19.5 36q0 19 9.5 31t23.5 18.5t30.5 9t31.5 2.5q56 0 86 -28.5t30 -76.5q0 -21 -11.5 -41t-26.5 -36.5t-30 -29t-22 -17.5l18 -4q24 -5 45 -12t40 -18.5t36.5 -27.5t35.5 -39h-2v-2q-6 2 -11 3t-10 1q-18 0 -25 -8.5t-7 -19.5q0 -15 10 -25.5t24 -17t29.5 -9.5t26.5 -3
q17 0 33.5 7.5t25.5 18.5h-4q-8 0 -20.5 2.5t-24 8t-19.5 14.5t-8 22q0 15 9.5 21.5t23.5 6.5q23 0 42.5 -15.5t19.5 -36.5q0 -4 -2 -10q13 3 27 9.5t25 17t18 24.5t7 33q0 11 -1 18.5t-5 19.5h4q2 -4 4.5 -15.5t2.5 -22.5zM719 -72q0 21 -10 46.5t-15 44.5
q-17 -5 -30 -15.5t-21 -27.5q20 -7 28.5 -21.5t8.5 -23.5q0 -7 -5.5 -16t-19.5 -9q-12 0 -20 12.5t-8 25.5v9q0 4 2 9q-5 1 -9 1h-7q-19 0 -30.5 -10.5t-11.5 -29.5q0 -14 6.5 -24.5t16.5 -18t23 -11t26 -3.5q12 0 25 4t24.5 12t19 19.5t7.5 26.5zM1102 689q0 33 -5 44.5
t-13 11.5q-9 0 -15 -7.5t-9.5 -18t-5.5 -21.5t-3 -18q-2 -11 -7 -37.5t-10.5 -57.5t-9.5 -59t-4 -40q0 -3 1 -7t7 -4q14 0 27.5 21t24.5 69q2 23 8.5 57.5t13.5 66.5zM1666 689q0 33 -5 44.5t-13 11.5q-9 0 -15 -7.5t-9.5 -18t-5.5 -21.5t-3 -18q-2 -11 -7 -37.5
t-10.5 -57.5t-9.5 -59t-4 -40q0 -3 1 -7t7 -4q14 0 27.5 21t24.5 69q2 23 8.5 57.5t13.5 66.5zM1370 699q-1 27 -6.5 36.5t-11.5 9.5q-9 0 -15 -7.5t-9.5 -18t-5.5 -21.5t-3 -18q-2 -11 -7 -37.5t-10.5 -57.5t-9.5 -59t-4 -40q0 -3 1 -7t7 -4q13 0 22 11t17 36.5t16 68.5
t19 108zM533 689q0 33 -5.5 44.5t-12.5 11.5t-12.5 -8t-10 -18.5t-7 -21.5t-3.5 -17q-2 -11 -7.5 -37.5t-10.5 -57.5t-9 -59t-4 -40q0 -3 1 -7t7 -4q13 0 26.5 21t24.5 69q2 23 8.5 57.5t14.5 66.5zM321 868q0 10 -3 17.5t-14 7.5t-21 -12t-27 -48q0 -2 -7 -19.5
t-16.5 -42.5t-19 -51.5t-15.5 -45.5q25 11 47.5 31.5t39 46.5t26.5 56t10 60zM1489 485q-7 -44 -36 -65t-60 -26q-1 -26 -27 -47t-62 -21q-13 0 -27 3t-26 10t-19.5 19t-7.5 30q0 19 16 37t37 19v-4q-16 -3 -29.5 -15.5t-13.5 -29.5q0 -16 6 -26t16.5 -15.5t23 -7.5t26.5 -2
q13 0 26.5 2t25 7.5t19.5 15.5t9 25q-3 -1 -7 -1q-23 0 -39 9t-16 25q0 8 8 14t15 6q16 0 28.5 -12.5t16.5 -28.5q31 4 59 26t36 53h2zM1286 272q0 22 -10 22q-12 0 -23 -14.5t-20 -37.5t-16 -51t-12 -55q19 3 34.5 19t25.5 37t15.5 43t5.5 37zM1184 439q-3 -17 -14 -32
t-27 -26.5t-36 -18.5t-41 -7h-11q-8 -8 -21 -12t-27 -4q-29 0 -57 13t-42 41l1 1q17 -20 40 -35t55 -15q12 0 23.5 3t19.5 10q-15 3 -37 9.5t-42.5 19t-34.5 31t-14 44.5q0 8 1.5 17.5t8.5 16.5l4 -4q-5 -15 -5 -27q0 -24 13.5 -40.5t33 -28t42 -17.5t41.5 -7q3 7 3 17
q0 23 -18.5 39t-43.5 16q-10 0 -20.5 -2.5t-19.5 -7.5l-4 1q8 8 19.5 11.5t22.5 3.5q13 0 25.5 -4.5t22.5 -12t16.5 -19t6.5 -24.5q0 -11 -3 -18h4q16 0 33 4t32 13t25.5 22.5t14.5 33.5zM1315 123q0 5 -1.5 9.5t-7.5 4.5q-15 0 -28.5 -11.5t-24 -28.5t-16.5 -36.5t-6 -35.5
v-2q12 0 26.5 10t27.5 25t21.5 32.5t8.5 32.5zM240 378q-11 20 -35 32.5t-44 12.5q-5 0 -11.5 -1t-13 -3t-11 -7t-4.5 -12q0 -10 7 -16t17.5 -9.5t22.5 -4.5t21 -1q25 0 51 9zM781 317v3q-5 29 -20.5 39t-26.5 10q-9 0 -18.5 -4.5t-21 -10t-26 -10t-34.5 -4.5q-18 0 -26 8
t-8 17q0 18 16 25t28 7l58 -6q11 0 21.5 4.5t10.5 18.5q0 15 -11.5 22.5t-25.5 7.5q-10 0 -19.5 -4.5t-9.5 -13.5q0 -13 16 -13q12 0 21 6l2 -7q-5 -2 -10.5 -4t-11.5 -2q-10 0 -17.5 5t-7.5 14q0 12 13.5 18.5t24.5 6.5q17 0 30 -9t13 -26t-13.5 -23.5t-24.5 -6.5l-59 7
q-11 0 -24.5 -6t-13.5 -21q0 -10 9 -14t17 -4q12 0 25 5t25.5 11.5t24 11.5t20.5 5q26 0 43 -18t17 -46zM1002 131q-11 -1 -20 -8t-15.5 -17.5t-10 -23t-3.5 -24.5q0 -9 5 -21.5t19 -12.5q6 0 10.5 12t7 29t4 35.5t3.5 30.5zM423 -76q0 18 -16.5 30t-32.5 12q-11 0 -19 -6
t-8 -19q0 -9 6 -15.5t15 -10.5t18.5 -5.5t17.5 -1.5q10 0 14.5 2.5t4.5 13.5zM417 299q0 8 -3 14t-12 6q-10 0 -16 -6t-9.5 -14.5t-5 -18t-1.5 -16.5q0 -19 5 -29q16 11 29 29t13 35zM1385 406q-3 14 -12 23.5t-23 9.5q-6 0 -10.5 -2.5t-4.5 -10.5q0 -12 14.5 -16t31.5 -4h4
zM668 -72q0 11 -9 18.5t-20 12.5q-1 -3 -1 -6v-7q0 -10 3.5 -20t11.5 -10q9 0 12 4t3 8z" />
    <glyph glyph-name="guillemotleft" unicode="&#xab;" horiz-adv-x="500" 
d="M260 362l220 164v-137l-115 -74l115 -76v-139l-220 165v97zM20 363l220 163v-137l-115 -74l115 -76v-139l-220 165v98z" />
    <glyph glyph-name="logicalnot" unicode="&#xac;" horiz-adv-x="494" 
d="M206 120l-3 6l75 47l32 -40v469h-126v-482h22zM407 28l28 -37l-92 -64l-57 73h-176l-60 75v574l60 73h274l60 -72v-576z" />
    <glyph glyph-name="registered" unicode="&#xae;" horiz-adv-x="572" 
d="M264 549v-48h44v48h-44zM279 383v-70h-109v70h15v166h-15v70h179l38 -45v-77l-36 -43l43 -71h15v-70h-110v70h16l-41 69h-10v-69h15zM119 652v-372h334v372h-334zM78 210l-38 47v420l38 45h416l38 -45v-422l-38 -45h-416z" />
    <glyph glyph-name="macron" unicode="&#xaf;" horiz-adv-x="269" 
d="M0 841h269v-80h-269v80z" />
    <glyph glyph-name="macron" unicode="&#x2c9;" horiz-adv-x="269" 
d="M0 841h269v-80h-269v80z" />
    <glyph glyph-name="degree" unicode="&#xb0;" horiz-adv-x="354" 
d="M139 637v-112h76v112h-76zM95 440l-55 61v162l55 59h159l60 -58v-164l-60 -60h-159z" />
    <glyph glyph-name="plusminus" unicode="&#xb1;" 
d="M272 177l84 425h-45v120h224v-120h-45l-103 -482h34v-120h-298v120h35l-103 482h-45v120h224v-120h-45z" />
    <glyph glyph-name="uni00B2" unicode="&#xb2;" horiz-adv-x="350" 
d="M142 638v-44h-92v82l39 46h172l39 -47v-170l-41 -43h-117v-94h63v47h93v-131h-248v225l35 38h122v91h-65z" />
    <glyph glyph-name="uni00B3" unicode="&#xb3;" horiz-adv-x="347" 
d="M139 638v-46h-89v83l39 47h169l39 -46v-128l-25 -23l25 -21v-173l-39 -47h-169l-39 49v100h89v-65h65v109h-64v84h64v77h-65z" />
    <glyph glyph-name="acute" unicode="&#xb4;" horiz-adv-x="341" 
d="M198 881h103l-64 -124h-77z" />
    <glyph glyph-name="mu" unicode="&#xb5;" horiz-adv-x="687" 
d="M329 115l-120 417v-412h45v-120h-224v120h45v482h-45v120h257l56 -281l57 281h257v-120h-45v-482h45v-120h-224v120h45v412l-120 -417h-29z" />
    <glyph glyph-name="paragraph" unicode="&#xb6;" horiz-adv-x="558" 
d="M206 -100v386h-106l-60 74v290l60 72h438v-120h-45v-702h-84v702h-69v-702h-134z" />
    <glyph glyph-name="periodcentered" unicode="&#xb7;" horiz-adv-x="174" 
d="M20 286v120h134v-120h-134z" />
    <glyph glyph-name="cedilla" unicode="&#xb8;" horiz-adv-x="341" 
d="M162 24h113l-65 -144h-87z" />
    <glyph glyph-name="uni00B9" unicode="&#xb9;" horiz-adv-x="478" 
d="M209 602v-216h85v216h-85zM254 120v-120h-224v120h45v482h-45v120h338l60 -72v-290l-50 -62l30 -178h45v-120h-151l-49 266h-44v-146h45z" />
    <glyph glyph-name="ordmasculine" unicode="&#xba;" horiz-adv-x="434" 
d="M130 170h189v-110h-189v110zM164 512v-162h106v162h-106zM100 240l-60 75v234l60 73h234l60 -72v-236l-60 -74h-234z" />
    <glyph glyph-name="guillemotright" unicode="&#xbb;" horiz-adv-x="500" 
d="M480 265l-220 -165v139l115 76l-115 74v137l220 -163v-98zM240 265l-220 -165v139l115 76l-115 74v137l220 -164v-97z" />
    <glyph glyph-name="onequarter" unicode="&#xbc;" horiz-adv-x="728" 
d="M195 368v-84h-145v84h26v270h-26v58l57 26h61v-354h27zM385 722h102l-288 -722h-102zM555 223v104q-20 -27 -37 -51t-37 -53h74zM648 439v-216h30v-85h-30v-54h26v-84h-146v84h27v54h-166v100l140 201h119z" />
    <glyph glyph-name="onehalf" unicode="&#xbd;" horiz-adv-x="689" 
d="M481 354v-44h-92v82l39 46h172l39 -47v-170l-41 -43h-117v-94h63v47h93v-131h-248v225l35 38h122v91h-65zM385 722h102l-288 -722h-102zM195 368v-84h-145v84h26v270h-26v58l57 26h61v-354h27z" />
    <glyph glyph-name="threequarters" unicode="&#xbe;" horiz-adv-x="830" 
d="M139 638v-46h-89v83l39 47h169l39 -46v-128l-25 -23l25 -21v-173l-39 -47h-169l-39 49v100h89v-65h65v109h-64v84h64v77h-65zM487 722h102l-288 -722h-102zM657 223v104q-20 -27 -37 -51t-37 -53h74zM750 439v-216h30v-85h-30v-54h26v-84h-146v84h27v54h-166v100l140 201
h119z" />
    <glyph glyph-name="questiondown" unicode="&#xbf;" horiz-adv-x="484" 
d="M359 622v-120h-134v120h134zM325 20v89h134v-137l-60 -72h-309l-60 73v252l56 69l139 37v101h134v-152l-41 -65l-154 -40v-155h161z" />
    <glyph glyph-name="Agrave" unicode="&#xc0;" 
d="M234 331h76l-37 214zM310 756h-77l-64 124h103zM337 211h-130l-18 -91h45v-120h-224v120h45l104 482h-34v120h298v-120h-35l102 -482h45v-120h-224v120h45z" />
    <glyph glyph-name="Aacute" unicode="&#xc1;" 
d="M234 331h76l-37 214zM278 880h103l-64 -124h-77zM337 211h-130l-18 -91h45v-120h-224v120h45l104 482h-34v120h298v-120h-35l102 -482h45v-120h-224v120h45z" />
    <glyph glyph-name="Acircumflex" unicode="&#xc2;" 
d="M234 331h76l-37 214zM382 756h-72l-38 60l-38 -60h-72l65 124h90zM337 211h-130l-18 -91h45v-120h-224v120h45l104 482h-34v120h298v-120h-35l102 -482h45v-120h-224v120h45z" />
    <glyph glyph-name="Atilde" unicode="&#xc3;" 
d="M234 331h76l-37 214zM343 810v51h80v-76l-31 -32h-90l-96 51v-51h-85v74l37 34h96zM337 211h-130l-18 -91h45v-120h-224v120h45l104 482h-34v120h298v-120h-35l102 -482h45v-120h-224v120h45z" />
    <glyph glyph-name="Adieresis" unicode="&#xc4;" 
d="M234 331h76l-37 214zM302 764v88h94v-88h-94zM148 764v88h94v-88h-94zM337 211h-130l-18 -91h45v-120h-224v120h45l104 482h-34v120h298v-120h-35l102 -482h45v-120h-224v120h45z" />
    <glyph glyph-name="Aring" unicode="&#xc5;" 
d="M234 898v-72h76v72h-76zM234 331h76l-37 214zM195 756l-45 50v114l45 48h154l45 -47v-116l-45 -49h-154zM337 211h-130l-18 -91h45v-120h-224v120h45l104 482h-34v120h298v-120h-35l102 -482h45v-120h-224v120h45z" />
    <glyph glyph-name="AE" unicode="&#xc6;" horiz-adv-x="767" 
d="M281 331h92v203zM225 211l-37 -91h45v-120h-223v120h44l221 482h-34v120h481v-207h-119v87h-96v-176h56v25h120v-170h-120v25h-56v-186h96v87h119v-207h-394v120h45v91h-148z" />
    <glyph glyph-name="Ccedilla" unicode="&#xc7;" horiz-adv-x="460" 
d="M194 0h-84l-60 75v574l60 73h255l60 -72v-155h-119v107h-122v-482h122v106h119v-152l-60 -74h-62l-54 -120h-87z" />
    <glyph glyph-name="Egrave" unicode="&#xc8;" horiz-adv-x="469" 
d="M287 756h-77l-64 124h103zM424 207v-207h-394v120h45v482h-45v120h394v-207h-119v87h-96v-176h56v25h120v-170h-120v25h-56v-186h96v87h119z" />
    <glyph glyph-name="Eacute" unicode="&#xc9;" horiz-adv-x="469" 
d="M241 880h103l-64 -124h-77zM424 207v-207h-394v120h45v482h-45v120h394v-207h-119v87h-96v-176h56v25h120v-170h-120v25h-56v-186h96v87h119z" />
    <glyph glyph-name="Ecircumflex" unicode="&#xca;" horiz-adv-x="469" 
d="M346 756h-72l-38 60l-38 -60h-72l65 124h90zM424 207v-207h-394v120h45v482h-45v120h394v-207h-119v87h-96v-176h56v25h120v-170h-120v25h-56v-186h96v87h119z" />
    <glyph glyph-name="Edieresis" unicode="&#xcb;" horiz-adv-x="469" 
d="M264 764v88h94v-88h-94zM110 764v88h94v-88h-94zM424 207v-207h-394v120h45v482h-45v120h394v-207h-119v87h-96v-176h56v25h120v-170h-120v25h-56v-186h96v87h119z" />
    <glyph glyph-name="Igrave" unicode="&#xcc;" horiz-adv-x="284" 
d="M189 756h-77l-64 124h103zM254 120v-120h-224v120h45v482h-45v120h224v-120h-45v-482h45z" />
    <glyph glyph-name="Iacute" unicode="&#xcd;" horiz-adv-x="284" 
d="M149 880h103l-64 -124h-77zM254 120v-120h-224v120h45v482h-45v120h224v-120h-45v-482h45z" />
    <glyph glyph-name="Icircumflex" unicode="&#xce;" horiz-adv-x="284" 
d="M252 756h-72l-38 60l-38 -60h-72l65 124h90zM254 120v-120h-224v120h45v482h-45v120h224v-120h-45v-482h45z" />
    <glyph glyph-name="Idieresis" unicode="&#xcf;" horiz-adv-x="284" 
d="M172 764v88h94v-88h-94zM18 764v88h94v-88h-94zM254 120v-120h-224v120h45v482h-45v120h224v-120h-45v-482h45z" />
    <glyph glyph-name="Eth" unicode="&#xd0;" horiz-adv-x="487" 
d="M209 602v-184h56v-119h-56v-179h94v482h-94zM8 418h67v184h-45v120h347l60 -72v-576l-60 -74h-347v120h45v179h-67v119z" />
    <glyph glyph-name="Ntilde" unicode="&#xd1;" horiz-adv-x="607" 
d="M377 810v51h80v-76l-31 -32h-90l-96 51v-51h-85v74l37 34h96zM363 -3l-154 505v-382h45v-120h-224v120h45v482h-45v120h247l126 -452v332h-45v120h224v-120h-45v-605h-174z" />
    <glyph glyph-name="Ograve" unicode="&#xd2;" horiz-adv-x="484" 
d="M290 756h-77l-64 124h103zM184 602v-482h124v482h-124zM434 74l-60 -74h-264l-60 75v574l60 73h264l60 -72v-576z" />
    <glyph glyph-name="Oacute" unicode="&#xd3;" horiz-adv-x="484" 
d="M243 880h103l-64 -124h-77zM184 602v-482h124v482h-124zM434 74l-60 -74h-264l-60 75v574l60 73h264l60 -72v-576z" />
    <glyph glyph-name="Ocircumflex" unicode="&#xd4;" horiz-adv-x="484" 
d="M352 756h-72l-38 60l-38 -60h-72l65 124h90zM184 602v-482h124v482h-124zM434 74l-60 -74h-264l-60 75v574l60 73h264l60 -72v-576z" />
    <glyph glyph-name="Otilde" unicode="&#xd5;" horiz-adv-x="484" 
d="M313 810v51h80v-76l-31 -32h-90l-96 51v-51h-85v74l37 34h96zM184 602v-482h124v482h-124zM434 74l-60 -74h-264l-60 75v574l60 73h264l60 -72v-576z" />
    <glyph glyph-name="Odieresis" unicode="&#xd6;" horiz-adv-x="484" 
d="M272 764v88h94v-88h-94zM118 764v88h94v-88h-94zM184 602v-482h124v482h-124zM434 74l-60 -74h-264l-60 75v574l60 73h264l60 -72v-576z" />
    <glyph glyph-name="multiply" unicode="&#xd7;" horiz-adv-x="386" 
d="M104 534l81 -80l86 86l95 -95l-86 -86l80 -81l-84 -84l-80 81l-82 -81l-94 94l81 82l-81 80z" />
    <glyph glyph-name="Oslash" unicode="&#xd8;" horiz-adv-x="484" 
d="M184 602v-298l124 259v39h-124zM308 120v310l-124 -257v-53h124zM110 722h264l10 -13l26 53l52 -27l-37 -75l9 -10v-576l-60 -74h-264l-11 13l-34 -66l-46 33l41 82l-10 13v574z" />
    <glyph glyph-name="Ugrave" unicode="&#xd9;" horiz-adv-x="572" 
d="M324 757h-77l-64 124h103zM497 74l-60 -74h-302l-60 75v527h-45v120h224v-120h-45v-482h154v482h-45v120h224v-120h-45v-528z" />
    <glyph glyph-name="Uacute" unicode="&#xda;" horiz-adv-x="572" 
d="M286 881h103l-64 -124h-77zM497 74l-60 -74h-302l-60 75v527h-45v120h224v-120h-45v-482h154v482h-45v120h224v-120h-45v-528z" />
    <glyph glyph-name="Ucircumflex" unicode="&#xdb;" horiz-adv-x="572" 
d="M396 757h-72l-38 60l-38 -60h-72l65 124h90zM497 74l-60 -74h-302l-60 75v527h-45v120h224v-120h-45v-482h154v482h-45v120h224v-120h-45v-528z" />
    <glyph glyph-name="Udieresis" unicode="&#xdc;" horiz-adv-x="572" 
d="M316 765v88h94v-88h-94zM162 765v88h94v-88h-94zM497 74l-60 -74h-302l-60 75v527h-45v120h224v-120h-45v-482h154v482h-45v120h224v-120h-45v-528z" />
    <glyph glyph-name="Yacute" unicode="&#xdd;" horiz-adv-x="534" 
d="M268 881h103l-64 -124h-77zM379 120v-120h-224v120h45v198l-145 284h-45v120h224v-120h-45l78 -149l78 149h-45v120h224v-120h-45l-145 -287v-195h45z" />
    <glyph glyph-name="Thorn" unicode="&#xde;" horiz-adv-x="468" 
d="M209 452v-176h85v176h-85zM254 120v-120h-224v120h45v482h-45v120h224v-120h-45v-40h159l60 -72v-250l-60 -74h-159v-46h45z" />
    <glyph glyph-name="germandbls" unicode="&#xdf;" horiz-adv-x="898" 
d="M613 602v-145l214 -41l41 -65v-278l-60 -73h-269l-60 72v141h134v-93h121v180l-199 38l-56 69v242l60 73h269l60 -72v-137h-134v89h-121zM164 602v-145l214 -41l41 -65v-278l-60 -73h-269l-60 72v141h134v-93h121v180l-199 38l-56 69v242l60 73h269l60 -72v-137h-134v89
h-121z" />
    <glyph glyph-name="agrave" unicode="&#xe0;" 
d="M234 331h76l-37 214zM310 756h-77l-64 124h103zM337 211h-130l-18 -91h45v-120h-224v120h45l104 482h-34v120h298v-120h-35l102 -482h45v-120h-224v120h45z" />
    <glyph glyph-name="aacute" unicode="&#xe1;" 
d="M234 331h76l-37 214zM278 880h103l-64 -124h-77zM337 211h-130l-18 -91h45v-120h-224v120h45l104 482h-34v120h298v-120h-35l102 -482h45v-120h-224v120h45z" />
    <glyph glyph-name="acircumflex" unicode="&#xe2;" 
d="M234 331h76l-37 214zM382 756h-72l-38 60l-38 -60h-72l65 124h90zM337 211h-130l-18 -91h45v-120h-224v120h45l104 482h-34v120h298v-120h-35l102 -482h45v-120h-224v120h45z" />
    <glyph glyph-name="atilde" unicode="&#xe3;" 
d="M234 331h76l-37 214zM343 810v51h80v-76l-31 -32h-90l-96 51v-51h-85v74l37 34h96zM337 211h-130l-18 -91h45v-120h-224v120h45l104 482h-34v120h298v-120h-35l102 -482h45v-120h-224v120h45z" />
    <glyph glyph-name="adieresis" unicode="&#xe4;" 
d="M234 331h76l-37 214zM148 764v88h94v-88h-94zM302 764v88h94v-88h-94zM337 211h-130l-18 -91h45v-120h-224v120h45l104 482h-34v120h298v-120h-35l102 -482h45v-120h-224v120h45z" />
    <glyph glyph-name="aring" unicode="&#xe5;" 
d="M234 898v-72h76v72h-76zM234 331h76l-37 214zM195 756l-45 50v114l45 48h154l45 -47v-116l-45 -49h-154zM337 211h-130l-18 -91h45v-120h-224v120h45l104 482h-34v120h298v-120h-35l102 -482h45v-120h-224v120h45z" />
    <glyph glyph-name="ae" unicode="&#xe6;" horiz-adv-x="767" 
d="M281 331h92v208zM225 211l-37 -91h45v-120h-223v120h44l221 482h-34v120h481v-207h-119v87h-96v-176h56v25h120v-170h-120v25h-56v-186h96v87h119v-207h-394v120h45v91h-148z" />
    <glyph glyph-name="ccedilla" unicode="&#xe7;" horiz-adv-x="460" 
d="M194 0h-84l-60 75v574l60 73h255l60 -72v-155h-119v107h-122v-482h122v106h119v-152l-60 -74h-62l-54 -120h-87z" />
    <glyph glyph-name="egrave" unicode="&#xe8;" horiz-adv-x="469" 
d="M287 756h-77l-64 124h103zM424 207v-207h-394v120h45v482h-45v120h394v-207h-119v87h-96v-176h56v25h120v-170h-120v25h-56v-186h96v87h119z" />
    <glyph glyph-name="eacute" unicode="&#xe9;" horiz-adv-x="469" 
d="M241 880h103l-64 -124h-77zM424 207v-207h-394v120h45v482h-45v120h394v-207h-119v87h-96v-176h56v25h120v-170h-120v25h-56v-186h96v87h119z" />
    <glyph glyph-name="ecircumflex" unicode="&#xea;" horiz-adv-x="469" 
d="M346 756h-72l-38 60l-38 -60h-72l65 124h90zM424 207v-207h-394v120h45v482h-45v120h394v-207h-119v87h-96v-176h56v25h120v-170h-120v25h-56v-186h96v87h119z" />
    <glyph glyph-name="edieresis" unicode="&#xeb;" horiz-adv-x="469" 
d="M264 764v88h94v-88h-94zM110 764v88h94v-88h-94zM424 207v-207h-394v120h45v482h-45v120h394v-207h-119v87h-96v-176h56v25h120v-170h-120v25h-56v-186h96v87h119z" />
    <glyph glyph-name="igrave" unicode="&#xec;" horiz-adv-x="284" 
d="M189 756h-77l-64 124h103zM254 120v-120h-224v120h45v482h-45v120h224v-120h-45v-482h45z" />
    <glyph glyph-name="iacute" unicode="&#xed;" horiz-adv-x="284" 
d="M149 880h103l-64 -124h-77zM254 120v-120h-224v120h45v482h-45v120h224v-120h-45v-482h45z" />
    <glyph glyph-name="icircumflex" unicode="&#xee;" horiz-adv-x="284" 
d="M252 756h-72l-38 60l-38 -60h-72l65 124h90zM254 120v-120h-224v120h45v482h-45v120h224v-120h-45v-482h45z" />
    <glyph glyph-name="idieresis" unicode="&#xef;" horiz-adv-x="284" 
d="M172 764v88h94v-88h-94zM18 764v88h94v-88h-94zM254 120v-120h-224v120h45v482h-45v120h224v-120h-45v-482h45z" />
    <glyph glyph-name="eth" unicode="&#xf0;" horiz-adv-x="487" 
d="M209 602v-184h56v-119h-56v-179h94v482h-94zM8 418h67v184h-45v120h347l60 -72v-576l-60 -74h-347v120h45v179h-67v119z" />
    <glyph glyph-name="ntilde" unicode="&#xf1;" horiz-adv-x="607" 
d="M377 810v51h80v-76l-31 -32h-90l-96 51v-51h-85v74l37 34h96zM363 -3l-154 505v-382h45v-120h-224v120h45v482h-45v120h247l126 -452v332h-45v120h224v-120h-45v-605h-174z" />
    <glyph glyph-name="ograve" unicode="&#xf2;" horiz-adv-x="484" 
d="M290 756h-77l-64 124h103zM184 602v-482h124v482h-124zM434 74l-60 -74h-264l-60 75v574l60 73h264l60 -72v-576z" />
    <glyph glyph-name="oacute" unicode="&#xf3;" horiz-adv-x="484" 
d="M243 880h103l-64 -124h-77zM184 602v-482h124v482h-124zM434 74l-60 -74h-264l-60 75v574l60 73h264l60 -72v-576z" />
    <glyph glyph-name="ocircumflex" unicode="&#xf4;" horiz-adv-x="484" 
d="M352 756h-72l-38 60l-38 -60h-72l65 124h90zM184 602v-482h124v482h-124zM434 74l-60 -74h-264l-60 75v574l60 73h264l60 -72v-576z" />
    <glyph glyph-name="otilde" unicode="&#xf5;" horiz-adv-x="484" 
d="M313 810v51h80v-76l-31 -32h-90l-96 51v-51h-85v74l37 34h96zM184 602v-482h124v482h-124zM434 74l-60 -74h-264l-60 75v574l60 73h264l60 -72v-576z" />
    <glyph glyph-name="odieresis" unicode="&#xf6;" horiz-adv-x="484" 
d="M272 764v88h94v-88h-94zM118 764v88h94v-88h-94zM184 602v-482h124v482h-124zM434 74l-60 -74h-264l-60 75v574l60 73h264l60 -72v-576z" />
    <glyph glyph-name="divide" unicode="&#xf7;" horiz-adv-x="846" 
d="M573 197l84 405h-45v120h224v-120h-45l-103 -482h34v-120h-249l-9 80h17l-59 288l-57 -289h17l-9 -79h-250v120h35l-103 482h-45v120h224v-120h-45l83 -405l84 405h-45v120h224v-120h-45z" />
    <glyph glyph-name="oslash" unicode="&#xf8;" horiz-adv-x="484" 
d="M184 602v-298l124 259v39h-124zM308 120v310l-124 -257v-53h124zM110 722h264l10 -13l26 53l52 -27l-37 -75l9 -10v-576l-60 -74h-264l-11 13l-34 -66l-46 33l41 82l-10 13v574z" />
    <glyph glyph-name="ugrave" unicode="&#xf9;" horiz-adv-x="572" 
d="M324 757h-77l-64 124h103zM497 74l-60 -74h-302l-60 75v527h-45v120h224v-120h-45v-482h154v482h-45v120h224v-120h-45v-528z" />
    <glyph glyph-name="uacute" unicode="&#xfa;" horiz-adv-x="572" 
d="M286 881h103l-64 -124h-77zM497 74l-60 -74h-302l-60 75v527h-45v120h224v-120h-45v-482h154v482h-45v120h224v-120h-45v-528z" />
    <glyph glyph-name="ucircumflex" unicode="&#xfb;" horiz-adv-x="572" 
d="M396 757h-72l-38 60l-38 -60h-72l65 124h90zM497 74l-60 -74h-302l-60 75v527h-45v120h224v-120h-45v-482h154v482h-45v120h224v-120h-45v-528z" />
    <glyph glyph-name="udieresis" unicode="&#xfc;" horiz-adv-x="572" 
d="M316 765v88h94v-88h-94zM162 765v88h94v-88h-94zM497 74l-60 -74h-302l-60 75v527h-45v120h224v-120h-45v-482h154v482h-45v120h224v-120h-45v-528z" />
    <glyph glyph-name="yacute" unicode="&#xfd;" horiz-adv-x="534" 
d="M268 881h103l-64 -124h-77zM379 120v-120h-224v120h45v198l-145 284h-45v120h224v-120h-45l78 -149l78 149h-45v120h224v-120h-45l-145 -287v-195h45z" />
    <glyph glyph-name="thorn" unicode="&#xfe;" horiz-adv-x="468" 
d="M209 452v-176h85v176h-85zM254 120v-120h-224v120h45v482h-45v120h224v-120h-45v-40h159l60 -72v-250l-60 -74h-159v-46h45z" />
    <glyph glyph-name="ydieresis" unicode="&#xff;" horiz-adv-x="534" 
d="M297 764v88h94v-88h-94zM143 764v88h94v-88h-94zM379 120v-120h-224v120h45v198l-145 284h-45v120h224v-120h-45l78 -149l78 149h-45v120h224v-120h-45l-145 -287v-195h45z" />
    <glyph glyph-name="OE" unicode="&#x152;" horiz-adv-x="694" 
d="M174 120h126v482h-126v-482zM649 207v-207h-549l-60 75v574l60 73h549v-207h-119v87h-96v-176h56v25h120v-170h-120v25h-56v-186h96v87h119z" />
    <glyph glyph-name="oe" unicode="&#x153;" horiz-adv-x="694" 
d="M174 120h126v482h-126v-482zM649 207v-207h-549l-60 75v574l60 73h549v-207h-119v87h-96v-176h56v25h120v-170h-120v25h-56v-186h96v87h119z" />
    <glyph glyph-name="Scaron" unicode="&#x160;" horiz-adv-x="449" 
d="M269 756h-90l-65 124h72l38 -60l38 60h72zM164 602v-145l214 -41l41 -65v-278l-60 -73h-269l-60 72v141h134v-93h121v180l-199 38l-56 69v242l60 73h269l60 -72v-137h-134v89h-121z" />
    <glyph glyph-name="scaron" unicode="&#x161;" horiz-adv-x="449" 
d="M269 757h-90l-65 124h72l38 -60l38 60h72zM164 602v-145l214 -41l41 -65v-278l-60 -73h-269l-60 72v141h134v-93h121v180l-199 38l-56 69v242l60 73h269l60 -72v-137h-134v89h-121z" />
    <glyph glyph-name="Ydieresis" unicode="&#x178;" horiz-adv-x="534" 
d="M297 764v88h94v-88h-94zM143 764v88h94v-88h-94zM379 120v-120h-224v120h45v198l-145 284h-45v120h224v-120h-45l78 -149l78 149h-45v120h224v-120h-45l-145 -287v-195h45z" />
    <glyph glyph-name="Zcaron" unicode="&#x17d;" horiz-adv-x="470" 
d="M280 756h-90l-65 124h72l38 -60l38 60h72zM444 226v-226h-424v150l281 452h-146v-113h-119v233h409v-150l-281 -452h161v106h119z" />
    <glyph glyph-name="zcaron" unicode="&#x17e;" horiz-adv-x="470" 
d="M280 757h-90l-65 124h72l38 -60l38 60h72zM444 226v-226h-424v150l281 452h-146v-113h-119v233h409v-150l-281 -452h161v106h119z" />
    <glyph glyph-name="florin" unicode="&#x192;" 
d="M234 331h76l-37 214zM337 211h-130l-18 -91h45v-120h-224v120h45l104 482h-34v120h234l131 -602h45v-120h-224v120h45z" />
    <glyph glyph-name="circumflex" unicode="&#x2c6;" horiz-adv-x="310" 
d="M265 757h-72l-38 60l-38 -60h-72l65 124h90z" />
    <glyph glyph-name="caron" unicode="&#x2c7;" horiz-adv-x="310" 
d="M45 881h72l38 -60l38 60h72l-65 -124h-90z" />
    <glyph glyph-name="tilde" unicode="&#x2dc;" horiz-adv-x="452" 
d="M297 811v51h80v-76l-31 -32h-90l-96 51v-51h-85v74l37 34h96z" />
    <glyph glyph-name="uni03BC" unicode="&#x3bc;" horiz-adv-x="687" 
d="M329 115l-120 417v-412h45v-120h-224v120h45v482h-45v120h257l56 -281l57 281h257v-120h-45v-482h45v-120h-224v120h45v412l-120 -417h-29z" />
    <glyph glyph-name="endash" unicode="&#x2013;" horiz-adv-x="409" 
d="M20 418h369v-120h-369v120z" />
    <glyph glyph-name="emdash" unicode="&#x2014;" horiz-adv-x="549" 
d="M20 418h509v-120h-509v120z" />
    <glyph glyph-name="quoteleft" unicode="&#x2018;" horiz-adv-x="174" 
d="M88 721h4v-96h62v-120h-134v120z" />
    <glyph glyph-name="quoteright" unicode="&#x2019;" horiz-adv-x="174" 
d="M86 505h-4v96h-62v120h134v-120z" />
    <glyph glyph-name="quotesinglbase" unicode="&#x201a;" horiz-adv-x="174" 
d="M86 -96h-4v96h-62v120h134v-120z" />
    <glyph glyph-name="quotedblleft" unicode="&#x201c;" horiz-adv-x="358" 
d="M200 721h4v-96h62v-120h-174v120l68 96h4v-51z" />
    <glyph glyph-name="quotedblright" unicode="&#x201d;" horiz-adv-x="358" 
d="M270 505h-4v96h-62v120h134v-120zM86 505h-4v96h-62v120h134v-120z" />
    <glyph glyph-name="quotedblbase" unicode="&#x201e;" horiz-adv-x="358" 
d="M270 -96h-4v96h-62v120h134v-120zM86 -96h-4v96h-62v120h134v-120z" />
    <glyph glyph-name="dagger" unicode="&#x2020;" horiz-adv-x="582" 
d="M130 335h-105v209h105v-45h94v103h-45v120h224v-120h-45v-103h94v45h105v-209h-105v45h-94v-260h45v-120h-224v120h45v260h-94v-45z" />
    <glyph glyph-name="daggerdbl" unicode="&#x2021;" horiz-adv-x="582" 
d="M130 387h-105v169h105v-25h94v71h-45v120h224v-120h-45v-71h94v25h105v-169h-105v25h-94v-96h94v25h105v-169h-105v25h-94v-77h45v-120h-224v120h45v77h-94v-25h-105v169h105v-25h94v96h-94v-25z" />
    <glyph glyph-name="bullet" unicode="&#x2022;" horiz-adv-x="274" 
d="M35 367q0 43 29 73t72 30q21 0 40 -8t33 -22t22 -33t8 -40q0 -44 -30 -72.5t-73 -28.5t-72 28.5t-29 72.5z" />
    <glyph glyph-name="ellipsis" unicode="&#x2026;" horiz-adv-x="582" 
d="M428 0v120h134v-120h-134zM224 0v120h134v-120h-134zM20 0v120h134v-120h-134z" />
    <glyph glyph-name="perthousand" unicode="&#x2030;" horiz-adv-x="1390" 
d="M1120 312v-202h106v202h-106zM1056 0l-60 75v274l60 73h234l60 -72v-276l-60 -74h-234zM706 312v-202h106v202h-106zM642 0l-60 75v274l60 73h234l60 -72v-276l-60 -74h-234zM164 612v-202h106v202h-106zM100 300l-60 75v274l60 73h234l60 -72v-276l-60 -74h-234z
M582 722h102l-288 -722h-102z" />
    <glyph glyph-name="guilsinglleft" unicode="&#x2039;" horiz-adv-x="260" 
d="M20 363l220 163v-137l-115 -74l115 -76v-139l-220 165v98z" />
    <glyph glyph-name="guilsinglright" unicode="&#x203a;" horiz-adv-x="260" 
d="M240 265l-220 -165v139l115 76l-115 74v137l220 -163v-98z" />
    <glyph glyph-name="Euro" unicode="&#x20ac;" horiz-adv-x="460" 
d="M10 456h40v193l60 73h255l60 -72v-135h-119v87h-122v-146h235v-65h-235v-60h235v-65h-235v-146h122v86h119v-132l-60 -74h-255l-60 75v191h-40v65h40v60h-40v65z" />
    <glyph glyph-name="trademark" unicode="&#x2122;" horiz-adv-x="757" 
d="M520 435l-69 218v-197h20v-75h-122v75h20v190h-20v76h151l33 -121l34 121h150v-76h-20v-190h20v-75h-122v75h20v197l-70 -218h-25zM229 456v-75h-122v75h20v190h-32v-47h-75v123h294v-123h-75v47h-30v-190h20z" />
    <glyph glyph-name="glyph79" horiz-adv-x="500" 
d="M0 418h500v-120h-500v120z" />
    </font>
</defs>
</svg>
